/* XPM */
static char *_a40363cec884d1cd78adcaa11c8a34fOmWB3Qt7PzSSPbph[] = {
/* columns rows colors chars-per-pixel */
"100 100 53 1 ",
"  c #B8824F",
". c #B78350",
"X c #BB8652",
"o c #BE8954",
"O c #C28D56",
"+ c #C38F58",
"@ c #C69159",
"# c #CB955B",
"$ c #CD995D",
"% c #D19A5D",
"& c #D1995E",
"* c #D29B5E",
"= c #D39B5E",
"- c #D39C5E",
"; c #D29E5F",
": c #D49E5F",
"> c #CE9C60",
", c #CF9D60",
"< c #CF9E61",
"1 c #D29D60",
"2 c #D09F60",
"3 c #D29F62",
"4 c #D49D60",
"5 c #D49F60",
"6 c #D1A163",
"7 c #D3A062",
"8 c #D2A263",
"9 c #D3A363",
"0 c #D5A160",
"q c #D6A160",
"w c #D7A261",
"e c #D4A463",
"r c #D7A562",
"t c #D3A364",
"y c #D4A364",
"u c #D4A464",
"i c #D5A564",
"p c #D6A664",
"a c #D7A764",
"s c #D9A663",
"d c #DAA763",
"f c #D8A865",
"g c #DAA864",
"h c #DBA964",
"j c #DBA965",
"k c #D9AA65",
"l c #DCAA65",
"z c #DCAC66",
"x c #DFAF66",
"c c #DEAE67",
"v c #DFB067",
"b c #DFB168",
"n c #E0B168",
/* pixels */
"*********************************0lxnvf0*******=*******wxxbvgw**1;********************$;0xxxxf:*****",
"*******************************$*0flxls0*****&&********:lggxg1*$************************0llxfr****%*",
"*********************************;0wsw0:****#@@@##*****:wwsr:***************************:0s:s5:***%%",
"**********************************;;;5*****=#OOXO+#*****;:*;;***************************;*;*;;*****%",
"*********************************$&&**&&***=#XX .O#=:****&*$*****************************%%%&*******",
"***********************************&*******=#OXXXO#==***&*********************************&%*&******",
"******************************************==#OXXX+*==***&***********************************&*******",
"**********************;;*****************===@OXXX+#=:***********************************************",
"11;<;71<111117;;<117;1<1111111<7*11177$*****#@+O+@$*************************************************",
"7u17777777u77777u77777977977777711777770****$**#****************************************************",
"977u79u87t77777u87u79977997u79977ttt777;*******;****************************************************",
"7u9u7978t7t7uu79u78879u7979979u7t7t7tt77$******;****************************************************",
"77u787uuu778u77u87uuu778997u7u967t77uu7$*******$*&%*********&***************************************",
"uuu7u78788uu7u78u78788uu7u776u7u7t77u771**;1**;;**;**;***1*1****************************************",
"8u87u8787u87u7u8u8787u87u7u897u7t77;111;;777;771;7;177771517****************************************",
"778u78uu78u788u778uu78u788u7u769771;;*;717771777w77777777tt:;**&************************************",
"u87u887uu777u797u77u887uu677u67u0;*%*$$78uu7u778ru7u7t7t7tuu7;;*************************************",
"u78u7u787uuuu796u78u7u7879u9u76u7;;*%;;6u78888uu77t7t7t7t77t7;$*************************************",
"8877u7u87utt887u8877u7u87u9u9677u1**%*;7877u7u87t677tt7tt777*;**************************************",
"7uu888u77t777uu87uu888u76u777uu977;:%%;68u8u78u77u7ut1ty7tuu1******;******$***********;1*$$***;;****",
"ut7t77u87ttt5;;;77u777u87u969uu7t711<17777u8u8787uriiiii7tu71711<11111;<11111111*1117<;1:0r0r7;1;711",
"kt67u8u7tt771***7788u8u76u7u77697tt77779u8u779u6urkvvkviu66uu7777uu7t7t6t1t7t7t77tt17717rgfxkk017777",
"kiu68u87t1t11*%*677u8u8797u7u67uu77tu8788u877ut76ikvxkxk97u779t777u77t7utttt7t7t7ttt7t7usfxxvkt77979",
"kk6u778uti11**%*$68u778uu769u76u97t778uu778u7t7t6ukvxxxi6u77uu7uu797t78ut1t7t7t7t7t7t7tirfxxbk7t7911",
"i9u1u677uu96;***;77967uu697ut7777uttiiiut777u8t7tkkvvbkk976t77u97u887u878uu7u7787t77uu7tuvvxxkt7777u",
"iktu79u96777;;**;;97u7977u766uu9976<<$<77uu9u76u1rkfvkkk9uu7t7u78u7u78u7778888uut7u7u7t7kkkxvi7ttt7u",
"i7t77uu7977720677797u979u7u97uu7u<#@@@$<u77t8877uriirrku7t796u6787u7uu88u87u7u877t79787truukriu7u7u6",
"7t7t6u76999979<9979976uu96u76u7ui$+ooo@>utt77uu87turu797u67u779uu788877uu78u78u7t77uuu77u779u77t69u7",
"u7u7u67u7u67u999997u77777u7u97uu7$oX.X+$iu7uu77tt7tt6766796uuu6787uuu778887u7u889997887u79767tt77u97",
"7tu7u7u6666u799u979uuut6767t6u76u$oX..+>uuu7u7tt7t169699uu77979uu78788uu7u788u7u77997uu6797ut7tt7997",
"t7t796676767uu77977777uuu99677uuu$@oXX@$uu6u7ut7ttut996u67u9797uu8787u87u7u89797u8799977999977i7u999",
"7t7t7u997uu967u67uu9u697977uu96u7<ooXX@<tttu77t1tt1t97979u76uu7678uu78u788u797999799778u79979u1y6779",
"7t7t77irukkru6777tu77u7111116u8u6<#@@@$<u8uu87u8777711177777uu77uu77u97u697ut1151w1115151515151111;;",
"t7t7uifvkkkk7u6u76u7u77;;;1;77977666<<6678878u78u67$**;;7tu7u78u77u6u79u7u76t11;11**1*11*****1**1*;*",
"7t7t7iibvvvk99u6u97u7t11****77u888uu99t67u8u77uu1;;;*$*17u99787u7u996977u7u9t1**********************",
"77t7uukxkvvku767u7uu771;**;2797888u8u9998u77u887t;*****1777uuu789u7u7uu696u7t1**********************",
"uu96ttkvvxxru879887uu97;$***779uu7787u997u78797777*****1797t8u897ut7u7ti7ut7t7**********************",
"97u77tivkxxku7u87u78797;**;*789788u688979u7uu77077;*****7771777771777711761177**********************",
"7u7t7tkurur7u87uu7u8797777:17u777u7u8u97977777;*1******;1111;;<1111111**7;;;1;**********************",
"uu77t7t7uu7777uu88u799777t7y79ut788u778u97u77;**0*******;;***;;;****;1**$;;*1;**********************",
"67u9776ut7t7t7777u87uu877tt77uu6uu8797uuu67u11****;%:***;******************************1************",
"9u76u6767t7t7tu778u7878ut77t7uu7878uu7777u791*****%**=*********************************$************",
"77uuu7u6t7tttt7uu998787u7t1ttuu7787u7u7uu7u61;****%:==*******************************$**************",
"u69769u77u1tt77u877uuu78t7tt777u9u787tt769u71*****%%%**********************************1************",
"11;;71171w;1111;w17161711w;15*;;77;117;1771w;;***%@#@#@#**************************1w0rww1*$*********",
";*;*$;;7**1**;1*****$;;;**11****2$***;**;$*******#+oXOO+*************************&wgixxls;*&********",
"********************************;*******;********#O XX +**;********************&&*5lnbxxs;**********",
"***********************************************;=#OXXO O#************************&5lxxxis;**********",
"***********************************************==@+XXXX@*&=********************&**0lxxxxs;**********",
"*************************************************$+OO+O@&==***********************0sflfdw***********",
"**************************************************##+##$&*************************::w0:::;**********",
"**************************************************==****&=******************************************",
"**************************************************===:*******************************%%%************",
"****************************$*&*********************;*********************************%$************",
"********************************&********************&*$********************************************",
"***************************;***;=*************************************11****************************",
"***************************:0drrq0;*******************************:wswr1***************************;",
"***************************:skvdxs1*******************************5gxxxr;%************************:5",
"*************************&*;kvvvxs;*******************************:lxbvg;*************************:5",
"***************************0kvnfxs5*$**************************&**wxfxxi;%************************11",
"**************************%*dnvvxs*%***************%=*%***********;lxxxs:%%;*********************#::",
"*************;:*:**********:sdddss;***************:::::;**********;sgxgw:%%***********************;5",
"***********1sslds:**********;:0;0;***************:ssfffw**********;;;w:;;***************************",
"***********wgxxxs:**********%********************0sxxxxs:#&***********%*%***************************",
"*********%%0sxbxsw$;***************************&&:fxxxxi;*********************=*********************",
"**********%:lxbxiw****************=:=************:fxxxns**********************=:=:******************",
"*********%*0sxxxg5****************=::*=********$*:fxxxxs**********************=*********************",
"*********%%:sxffg5$*************=%%%#************:slfflr***********************#&$******************",
"**********$:wss555&*************=%@@@@#%*********;0:sss0********************%%@+++#%==**************",
"*******************************=:#+X OO#;***********;***********************=#O+X++%==&*************",
"*************$*****************==@OX  O#=*********%%**********************===+XXX O#*=**************",
"*******************************4*@OX OO#=;*******************************====#XXXX+%==*&************",
"*********************************@OX.OO**************************************#O.X.+#**&*************",
"*******************************=:#++OO+#*************************************#OO+O#*****************",
"**********************************####*%**************************************##*##*****************",
"***********************************;==****************************************::==******************",
"**********************************************************=***=***********=*****==;*****************",
"************************************;;**************%%%**%%*=%%**&**%%%**%%*%***==****%&************",
"****************************************************%***%*%*%***&***%***%*%*=*%****%**&*************",
"***********************************************;************=***********=***************************",
"********************************************11778777$677766777776676767722667t77*7717676$;**********",
"********************************************177t7777777677777776777777770779777757776u771;**********",
"**%*****************************************1wtt9797u77u9997777u7997978779999977977u7utt7***********",
"**=:****************************************777t9997999u9797998u979799u7977676t799977t761;**********",
"********************************1******;****117t7799u9779979u87799797t7977777utt7u77u97u1**;****;;**",
"%####*%%********************1**111*****;1*;111t7999776u6797978u87979t77uukiirr7t77t6u78uw1;1;*;*7$*;",
"#+OOOO#********************177w111****;;11ttut7t9u977u6u97997u8u97997t7kkkkkif7uuu7u88777<7777*17777",
"@OX XO#********************17tttt*****;7tt1tt7t777999u7799978u779997t77ikvvvvkt7u77u7uu8ttt7u7u76u79",
"#+XXOO#*********************17t7770;**;1u778788uu97u887ut777t7u87u97u6uuxxfxff7u787uu778t17t7u7u97uu",
"#+  XO#=********&***$******;1t7t77$;%*;788uuuu77u78u7u787tuuu77879u7676kflxxnf7tuu7788uu7utt7u77u767",
"#O  XO#:*********&**********7tt7777$%**17u8787u988777tu87t1tu7uuuu967769xxxxxfr787997u87u7t7u7u8u676",
"#@OOO@#:*****;****;***;0***;77tt770$**;;78u78u797uu876u777w*6797677uuu7iffxflf77776u78u77t7t88u779uu",
"*#@@@#&****;$777117176$726777t77u677766uuu876t79797tuu87:;;*77799uu77u69iiiiiw;;<;177u888uu777u8u677",
"*==********;7977w17777979777t7uu79777777878uu7777u769777****<7997769u7797tiiy:**;;178u7u7788u8u779u9",
"=:=:==****$7uu6uu77u799997t77t7t6u7977u8787uu87uu88u9797****<799u67u9uu7t7t7t1*$**1787u7u87u8u877u99",
"=%%***&*;;7$77u7u7u79977997t67t776997978uu788uuu8uu79977*%$;;799u76u776u7t7tt1***;17u788u78u778u9977",
"****;;****;;1u7tu977u97u697u799797977u967u7u677766699967$7;;7779967uu677u67u97<;;*177tu6tu977u8877u8",
"*;;;;1;;1117777776u6u79u7u967rkuk99u7t7u799u6$$$$6<699u77$;;77977u7979u9u76u771;;<1777u7778u8u7uu877",
";7*577771177u7uu7u6u6977u77iivkkkk99u6u7uu966@ooo$66u99777;179u7u7u67u9u967777777777uu97787u87u79977",
"17tt7u77ttu7u7u79u777uu6776kkvvvvki77u77677u$oX.oo$9u67u9977u77969u76u777uu9ut7799u9977uuu78u7889766"
};
